<?xml version="1.0" encoding="UTF-8"?>
<!DOCTYPE svg PUBLIC "-//W3C//DTD SVG 1.1//EN" "http://www.w3.org/Graphics/SVG/1.1/DTD/svg11.dtd">
<!-- Creator: CorelDRAW 2021 (64-Bit) -->
<svg xmlns="http://www.w3.org/2000/svg" xml:space="preserve" width="0.688339in" height="0.684059in" version="1.1" style="shape-rendering:geometricPrecision; text-rendering:geometricPrecision; image-rendering:optimizeQuality; fill-rule:evenodd; clip-rule:evenodd"
viewBox="0 0 50.52 50.2"
 xmlns:xlink="http://www.w3.org/1999/xlink"
 xmlns:xodm="http://www.corel.com/coreldraw/odm/2003">
 <defs>
  <style type="text/css">
   <![CDATA[
    .fil0 {fill:white}
   ]]>
  </style>
 </defs>
 <g id="Layer_x0020_1">
  <metadata id="CorelCorpID_0Corel-Layer"/>
  <path class="fil0" d="M14.76 32.32l-0.03 -7.04 6.31 -0.01c0,-4.32 -0.64,-8.28 1.86,-11.87 0.32,-0.46 0.57,-0.67 0.94,-1.09 1.18,-1.28 3.56,-2.17 5.43,-2.4 1.93,-0.24 5.38,0.05 7.21,0.48l-0.01 6.44c-2.38,0.23 -5.22,-0.5 -6.44,1.25 -0.65,0.94 -0.56,1.97 -0.56,3.26 0,1.3 0,2.6 0,3.9l6.72 0.02 -0.86 5.44c-0.27,1.98 0.1,1.58 -2.1,1.58 -1.07,0 -2.75,-0.1 -3.75,0.02 0,2.97 -0.01,5.95 -0.01,8.92 0,0.94 0.11,8.65 -0.1,8.9 0.13,0.1 -0.03,0.03 0.17,0.07 0.44,0.09 3.34,-0.81 3.85,-0.98 2.26,-0.74 4.73,-2.07 6.58,-3.43 0.52,-0.38 0.93,-0.7 1.43,-1.11l1.29 -1.18c2.73,-2.51 6.24,-7.45 7.23,-12.82 1.94,-8.82 -1.07,-16.57 -5.41,-21.71 -1.89,-2.25 -4.54,-4.58 -7.88,-6.26 -3.3,-1.66 -7.14,-2.72 -11.38,-2.72 -4.26,0 -8.13,1.08 -11.43,2.74 -3.34,1.69 -5.57,3.65 -7.87,6.27 -4.96,5.67 -7.06,13.99 -5.37,21.67 0.45,2.44 1.74,5.47 2.84,7.27 2.02,3.33 4.09,5.59 7.15,7.86 0.9,0.67 1.98,1.33 3.09,1.91 1.91,1.01 4.29,1.88 6.45,2.33 0.21,0.04 0.65,0.17 0.84,0.14l0.17 -0.07c-0.21,-0.25 -0.1,-7.91 -0.1,-8.83 0,-2.99 -0.01,-5.99 -0.01,-8.99l-6.28 0.01 0 0 0.01 -0.01 0.02 0.02 -0 0z"/>
 </g>
</svg>
