<?xml version="1.0" encoding="UTF-8"?>
<!DOCTYPE svg PUBLIC "-//W3C//DTD SVG 1.1//EN" "http://www.w3.org/Graphics/SVG/1.1/DTD/svg11.dtd">
<!-- Creator: CorelDRAW 2021 (64-Bit) -->
<svg xmlns="http://www.w3.org/2000/svg" xml:space="preserve" width="0.688339in" height="0.684059in" version="1.1" style="shape-rendering:geometricPrecision; text-rendering:geometricPrecision; image-rendering:optimizeQuality; fill-rule:evenodd; clip-rule:evenodd"
viewBox="0 0 51.78 51.46"
 xmlns:xlink="http://www.w3.org/1999/xlink"
 xmlns:xodm="http://www.corel.com/coreldraw/odm/2003">
 <defs>
  <style type="text/css">
   <![CDATA[
    .fil0 {fill:black}
   ]]>
  </style>
 </defs>
 <g id="Layer_x0020_1">
  <metadata id="CorelCorpID_0Corel-Layer"/>
  <path class="fil0" d="M15.13 33.13l-0.03 -7.22 6.47 -0.01c0,-4.42 -0.66,-8.49 1.9,-12.16 0.33,-0.47 0.58,-0.69 0.97,-1.11 1.21,-1.31 3.65,-2.22 5.56,-2.46 1.98,-0.24 5.51,0.05 7.39,0.49l-0.01 6.6c-2.44,0.24 -5.35,-0.51 -6.6,1.28 -0.67,0.96 -0.58,2.02 -0.58,3.35 0,1.33 0,2.66 0,4l6.89 0.02 -0.88 5.57c-0.28,2.03 0.1,1.62 -2.15,1.62 -1.1,0 -2.82,-0.1 -3.84,0.02 0,3.04 -0.01,6.09 -0.01,9.14 0,0.96 0.11,8.87 -0.1,9.12 0.13,0.1 -0.03,0.04 0.17,0.07 0.45,0.09 3.42,-0.83 3.94,-1 2.32,-0.76 4.85,-2.12 6.74,-3.51 0.53,-0.39 0.95,-0.72 1.46,-1.14l1.32 -1.21c2.8,-2.57 6.39,-7.64 7.41,-13.14 1.99,-9.04 -1.1,-16.98 -5.54,-22.25 -1.94,-2.3 -4.66,-4.69 -8.08,-6.41 -3.38,-1.7 -7.32,-2.79 -11.66,-2.79 -4.36,0 -8.33,1.1 -11.71,2.81 -3.42,1.73 -5.71,3.74 -8.07,6.43 -5.08,5.82 -7.24,14.34 -5.51,22.21 0.46,2.5 1.78,5.6 2.91,7.45 2.08,3.41 4.19,5.73 7.33,8.06 0.92,0.68 2.03,1.36 3.17,1.96 1.96,1.04 4.39,1.93 6.61,2.39 0.21,0.05 0.67,0.17 0.86,0.14l0.17 -0.07c-0.21,-0.26 -0.1,-8.11 -0.1,-9.05 0,-3.07 -0.01,-6.14 -0.01,-9.21l-6.44 0.01 0 0 0.01 -0.01 0.02 0.02 -0 0z"/>
 </g>
</svg>
