<?xml version="1.0" encoding="UTF-8"?>
<!DOCTYPE svg PUBLIC "-//W3C//DTD SVG 1.1//EN" "http://www.w3.org/Graphics/SVG/1.1/DTD/svg11.dtd">
<!-- Creator: CorelDRAW 2021 (64-Bit) -->
<svg xmlns="http://www.w3.org/2000/svg" xml:space="preserve" width="0.688303in" height="0.688315in" version="1.1" style="shape-rendering:geometricPrecision; text-rendering:geometricPrecision; image-rendering:optimizeQuality; fill-rule:evenodd; clip-rule:evenodd"
viewBox="0 0 62.75 62.75"
 xmlns:xlink="http://www.w3.org/1999/xlink"
 xmlns:xodm="http://www.corel.com/coreldraw/odm/2003">
 <defs>
  <style type="text/css">
   <![CDATA[
    .fil0 {fill:black}
   ]]>
  </style>
 </defs>
 <g id="Layer_x0020_1">
  <metadata id="CorelCorpID_0Corel-Layer"/>
  <path class="fil0" d="M12.39 37.32c-0.13,-1.98 -0.04,-7.14 -0.04,-9.42 0.01,-2.87 -0.03,-6.14 0.86,-8.64 0.88,-2.49 2.38,-4.1 4.26,-5.23 2.29,-1.39 4.85,-1.49 7.86,-1.63 3.04,-0.14 6.33,-0.05 9.38,-0.04 2.94,0.01 6.03,-0.04 8.66,0.84 2.39,0.8 4.22,2.46 5.26,4.24 1.29,2.21 1.61,4.93 1.65,7.87 0.04,3.13 0.01,6.29 0.01,9.42 0,3.06 0.1,5.98 -0.83,8.7 -0.78,2.33 -2.49,4.23 -4.26,5.23 -2.39,1.35 -4.77,1.59 -7.89,1.63 -3.13,0.04 -6.29,0.01 -9.42,0.01 -5.64,0 -10.71,0.14 -13.9,-5.13 -1.44,-2.38 -1.41,-4.78 -1.61,-7.85l0 0 -0.01 0.01 0.01 -0.01zm18.28 -12.26c-1.02,0.13 -1.64,0.34 -2.42,0.76 -2.09,1.14 -3.52,3.64 -3.19,6.26 0.39,3.23 3.3,5.98 7.01,5.55 3.22,-0.37 6.02,-3.3 5.57,-7.01 -0.42,-3.47 -3.56,-6.02 -6.97,-5.57l0 0 0 0 -0 0 0 0zm-0.48 -3.39c5.34,-0.7 10.21,3.22 10.84,8.49 0.69,5.74 -3.52,10.27 -8.48,10.87 -5.75,0.7 -10.27,-3.51 -10.88,-8.47 -0.73,-5.84 3.5,-10.23 8.52,-10.89l0 0 0 0.01 -0 0zm10.87 -2.7c1.36,-0.24 2.46,0.7 2.65,1.82 0.25,1.37 -0.68,2.45 -1.78,2.67 -3.03,0.62 -3.83,-3.98 -0.87,-4.49l0 0.01 0 -0.01zm5.8 18.81c0.1,-1.26 0.07,-6.16 0.05,-7.69 -0.05,-4.5 0.65,-10.12 -2.84,-12.71 -1.77,-1.31 -3.69,-1.45 -6.21,-1.55 -2.94,-0.12 -12.75,-0.16 -15.38,0.15 -2.39,0.29 -4.1,1.28 -5.11,2.65 -1.31,1.75 -1.43,3.71 -1.54,6.22 -0.11,2.56 -0.06,5.2 -0.06,7.77 0,3.07 -0.29,8.04 1.09,10.65 1.7,3.23 4.79,3.41 8.03,3.6 2.53,0.16 12.98,0.13 15.33,-0.15 2.62,-0.31 3.98,-1.23 5.11,-2.65 1.38,-1.74 1.34,-3.74 1.54,-6.28l0 0 0 0 0.01 -0.01 -0 0zm-46.81 -4.79c0.9,16.78 15.06,30.61 32.93,29.71 16.76,-0.84 30.63,-15.06 29.74,-32.92 -0.83,-16.72 -15.07,-30.68 -32.91,-29.75 -6.42,0.34 -12.54,2.62 -17.3,6.26 -0.81,0.62 -1.44,1.18 -2.16,1.77 -0.68,0.56 -1.4,1.43 -1.96,1.96 -0.96,0.89 -2.72,3.32 -3.43,4.41 -3.42,5.29 -5.27,11.88 -4.91,18.54l0 0 0.01 0 -0.01 0.01 0 0z"/>
 </g>
</svg>
