<?xml version="1.0" encoding="UTF-8"?>
<!DOCTYPE svg PUBLIC "-//W3C//DTD SVG 1.1//EN" "http://www.w3.org/Graphics/SVG/1.1/DTD/svg11.dtd">
<!-- Creator: CorelDRAW 2021 (64-Bit) -->
<svg xmlns="http://www.w3.org/2000/svg" xml:space="preserve" width="0.68826in" height="0.688469in" version="1.1" style="shape-rendering:geometricPrecision; text-rendering:geometricPrecision; image-rendering:optimizeQuality; fill-rule:evenodd; clip-rule:evenodd"
viewBox="0 0 8092.56 8095.02"
 xmlns:xlink="http://www.w3.org/1999/xlink"
 xmlns:xodm="http://www.corel.com/coreldraw/odm/2003">
 <defs>
  <style type="text/css">
   <![CDATA[
    .fil0 {fill:white}
   ]]>
  </style>
 </defs>
 <g id="Layer_x0020_1">
  <metadata id="CorelCorpID_0Corel-Layer"/>
  <path class="fil0" d="M6233.78 2609.12c177.67,-10.88 466.62,-98.83 608.64,-165.31 -27.03,78 -234,299.78 -308.21,366.91 -63.37,57.86 -156,158.36 -231.73,190.81 11.67,684.42 -134.48,1203.53 -418.75,1713.2 -705.99,1268.48 -2223.05,1850.77 -3632.81,1408.09 -129.01,-40.13 -267.98,-91.98 -381.58,-149.1l-352.97 -189.24c25.51,-12.27 191.65,3.93 247.24,4.63 85.04,0.83 167.67,-4.63 251.87,-13.89 298.9,-32.4 536.84,-115.77 796.35,-247.94 153.04,-77.17 301.96,-200.07 312.84,-206.27 -280.48,-44.07 -397.04,-43.24 -653.45,-236.41 -125.87,-95.04 -303.53,-306.68 -362.23,-522.95 199.93,7.59 276.54,29.26 476.62,-17.73 -42.54,-29.3 -357.65,-71.15 -604.89,-371.58 -135.03,-164.47 -264.14,-418.71 -257.24,-715.94 28.61,4.63 164.47,70.41 220.07,87.31 77.95,24.77 179.93,45.6 267.33,41.8 -332.97,-251.04 -532.91,-610.35 -467.45,-1070.63 16.34,-112.81 74.21,-315.24 137.58,-384.82l363.8 374.68 174.43 140.54c269.65,214.65 654.28,393.94 985.59,498.23 149.1,47.03 570.08,139.8 732.28,122.81 -36.99,-297.33 -58.7,-458.89 92.63,-757.1 102.77,-202.48 258.81,-336.82 451.11,-448.01 319.09,-183.87 738.49,-184.56 1070.63,3.84 78,44.07 208.64,146.74 245.67,202.48 176.14,-7.04 580.08,-179.93 702.15,-259.46 -33.19,135.87 -162.2,341.31 -245.67,413.24 -46.99,40.13 -37.03,51.11 -141.37,127.53 -27.68,20.83 -52.49,35.51 -77.95,57.86l-0.83 0 -0.83 1.57 0.83 0.69 0.32 0.14zm-2367.48 -2606.3c-558.55,15.46 -1178.76,193.17 -1612.98,415.51 -395.51,203.17 -532.91,305.94 -835.74,549.94 -110.5,89.71 -226.36,212.48 -324.36,313.67 -746.22,766.26 -1127.75,1853.14 -1090.72,2949.96 29.26,882.91 381.53,1729.54 907.54,2376.83l434.95 455.74c27.68,21.66 39.39,36.34 67.17,59.44 347.6,285.8 658.91,490.5 1100.76,672.01 513.65,211.64 1110.02,319.73 1724.21,295.8 869.81,-33.89 1738.84,-380.14 2371.41,-906.85l135.03 -116.56c31.8,-25.51 35.64,-32.36 64.16,-61.8 22.41,-22.41 42.45,-37.03 65.78,-59.44 47.87,-45.6 81.8,-87.31 127.44,-133.74 26.29,-26.34 38.56,-34.76 61.8,-63.37l172.34 -206.27c75.78,-91.8 137.39,-186.14 210.07,-294.27 773.25,-1150.99 857.32,-2752.11 233.12,-3996.61 -118.09,-235.53 -247.94,-440.32 -383.94,-624.19 -116.61,-157.53 -215.58,-265.67 -349.18,-406.21 -43.24,-46.43 -92.63,-84.2 -132.12,-129.06l-131.19 -120.54c-23.1,-17.73 -45.6,-38.56 -68.74,-57.86 -296.68,-245.58 -669.79,-467.26 -1030.35,-615.68 -529.99,-217.11 -1080.76,-314.41 -1717.18,-297.33l0 0 0 -0.83 1.11 1.39 -0.42 0.32z"/>
 </g>
</svg>
