<?xml version="1.0" encoding="UTF-8"?>
<!DOCTYPE svg PUBLIC "-//W3C//DTD SVG 1.1//EN" "http://www.w3.org/Graphics/SVG/1.1/DTD/svg11.dtd">
<!-- Creator: CorelDRAW 2021 (64-Bit) -->
<svg xmlns="http://www.w3.org/2000/svg" xml:space="preserve" width="0.68826in" height="0.688469in" version="1.1" style="shape-rendering:geometricPrecision; text-rendering:geometricPrecision; image-rendering:optimizeQuality; fill-rule:evenodd; clip-rule:evenodd"
viewBox="0 0 1095.51 1095.85"
 xmlns:xlink="http://www.w3.org/1999/xlink"
 xmlns:xodm="http://www.corel.com/coreldraw/odm/2003">
 <defs>
  <style type="text/css">
   <![CDATA[
    .fil0 {fill:black}
   ]]>
  </style>
 </defs>
 <g id="Layer_x0020_1">
  <metadata id="CorelCorpID_0Corel-Layer"/>
  <path class="fil0" d="M843.88 353.2c24.05,-1.47 63.17,-13.38 82.39,-22.38 -3.66,10.56 -31.68,40.58 -41.72,49.67 -8.58,7.83 -21.12,21.44 -31.37,25.83 1.58,92.65 -18.2,162.93 -56.69,231.92 -95.57,171.72 -300.94,250.54 -491.78,190.62 -17.46,-5.43 -36.28,-12.45 -51.66,-20.18l-47.78 -25.62c3.45,-1.66 25.94,0.53 33.47,0.63 11.51,0.11 22.7,-0.63 34.1,-1.88 40.46,-4.39 72.67,-15.67 107.8,-33.56 20.72,-10.45 40.88,-27.08 42.35,-27.92 -37.97,-5.97 -53.75,-5.85 -88.46,-32 -17.04,-12.87 -41.09,-41.52 -49.04,-70.79 27.07,1.03 37.44,3.96 64.52,-2.4 -5.76,-3.97 -48.42,-9.63 -81.89,-50.3 -18.28,-22.27 -35.76,-56.68 -34.82,-96.92 3.87,0.63 22.27,9.53 29.79,11.82 10.55,3.35 24.36,6.17 36.19,5.66 -45.08,-33.98 -72.14,-82.63 -63.28,-144.93 2.21,-15.27 10.05,-42.68 18.62,-52.09l49.25 50.72 23.61 19.03c36.5,29.06 88.57,53.33 133.42,67.45 20.18,6.37 77.17,18.93 99.13,16.63 -5.01,-40.25 -7.95,-62.12 12.54,-102.49 13.91,-27.41 35.04,-45.6 61.07,-60.65 43.2,-24.89 99.97,-24.98 144.93,0.52 10.56,5.97 28.24,19.87 33.26,27.41 23.84,-0.95 78.53,-24.36 95.05,-35.12 -4.49,18.39 -21.96,46.2 -33.26,55.94 -6.36,5.43 -5.01,6.92 -19.14,17.26 -3.75,2.82 -7.11,4.81 -10.55,7.83l-0.11 0 -0.11 0.21 0.11 0.09 0.04 0.02zm-320.49 -352.82c-75.61,2.09 -159.57,26.15 -218.35,56.25 -53.54,27.5 -72.14,41.42 -113.14,74.45 -14.96,12.14 -30.64,28.76 -43.91,42.46 -101.02,103.73 -152.67,250.86 -147.65,399.34 3.96,119.52 51.65,234.13 122.86,321.76l58.88 61.69c3.75,2.93 5.33,4.92 9.09,8.05 47.06,38.69 89.2,66.4 149.01,90.97 69.53,28.65 150.27,43.28 233.41,40.04 117.75,-4.59 235.39,-51.46 321.02,-122.76l18.28 -15.78c4.31,-3.45 4.83,-4.38 8.69,-8.37 3.03,-3.03 5.75,-5.01 8.9,-8.05 6.48,-6.17 11.07,-11.82 17.25,-18.1 3.56,-3.57 5.22,-4.71 8.37,-8.58l23.33 -27.92c10.26,-12.43 18.6,-25.2 28.44,-39.84 104.68,-155.81 116.06,-372.56 31.56,-541.03 -15.99,-31.88 -33.56,-59.61 -51.98,-84.5 -15.79,-21.33 -29.18,-35.96 -47.27,-54.99 -5.85,-6.29 -12.54,-11.4 -17.88,-17.47l-17.76 -16.32c-3.13,-2.4 -6.17,-5.22 -9.31,-7.83 -40.16,-33.24 -90.67,-63.25 -139.48,-83.35 -71.75,-29.39 -146.31,-42.56 -232.46,-40.25l0 0 0 -0.11 0.15 0.19 -0.06 0.04z"/>
 </g>
</svg>
